<svg xmlns="http://www.w3.org/2000/svg" width="24" height="24" viewBox="648.2998 212.5409 8.0078 8.0078" fill="none"><g>
<path fill-rule="evenodd" clip-rule="evenodd" d="M655.14 213.208C655.273 213.208 655.406 213.205 655.523 213.236C655.81 213.314 656.035 213.539 656.112 213.826C656.144 213.943 656.141 214.075 656.141 214.209C656.141 214.343 656.144 214.475 656.112 214.592C656.046 214.839 655.871 215.04 655.64 215.14V217.946C655.64 218.221 655.641 218.447 655.626 218.631C655.61 218.818 655.577 218.991 655.495 219.153C655.367 219.404 655.163 219.608 654.912 219.736C654.75 219.818 654.577 219.851 654.39 219.867C654.206 219.882 653.98 219.881 653.705 219.881H650.902C650.627 219.881 650.401 219.882 650.218 219.867C650.03 219.851 649.857 219.818 649.696 219.736C649.445 219.608 649.24 219.404 649.112 219.153C649.03 218.991 648.997 218.818 648.982 218.631C648.967 218.447 648.967 218.221 648.967 217.946V215.14C648.737 215.039 648.561 214.839 648.495 214.592C648.464 214.475 648.467 214.343 648.467 214.209C648.467 214.075 648.464 213.943 648.495 213.826C648.572 213.539 648.797 213.314 649.085 213.236C649.201 213.205 649.334 213.208 649.467 213.208H655.14ZM649.634 217.946C649.634 218.232 649.634 218.426 649.647 218.576C649.659 218.723 649.68 218.798 649.707 218.85C649.771 218.975 649.873 219.077 649.999 219.141C650.051 219.168 650.126 219.19 650.272 219.202C650.422 219.214 650.616 219.214 650.902 219.214H651.97V217.017L651.205 217.782C651.075 217.912 650.863 217.912 650.733 217.782C650.603 217.651 650.603 217.44 650.733 217.31L652.068 215.975C652.198 215.845 652.409 215.845 652.54 215.975L653.874 217.31C654.004 217.44 654.004 217.651 653.874 217.782C653.744 217.912 653.533 217.912 653.402 217.782L652.637 217.017V219.214H653.705C653.991 219.214 654.185 219.214 654.335 219.202C654.481 219.19 654.556 219.168 654.609 219.141C654.734 219.077 654.836 218.975 654.9 218.85C654.927 218.798 654.949 218.723 654.96 218.576C654.973 218.426 654.973 218.232 654.973 217.946V215.21H649.634V217.946ZM649.3 213.877C649.268 213.879 649.257 213.881 649.257 213.881C649.2 213.896 649.155 213.941 649.139 213.999C649.139 213.999 649.137 214.01 649.135 214.042C649.134 214.079 649.134 214.129 649.134 214.209C649.134 214.29 649.134 214.339 649.135 214.376C649.137 214.407 649.139 214.418 649.139 214.419C649.155 214.477 649.2 214.522 649.257 214.537C649.257 214.537 649.268 214.54 649.3 214.541C649.338 214.543 649.387 214.543 649.467 214.543H655.14C655.22 214.543 655.27 214.543 655.307 214.541C655.338 214.54 655.349 214.537 655.35 214.537C655.407 214.522 655.452 214.477 655.468 214.419C655.468 214.418 655.47 214.408 655.472 214.376C655.473 214.339 655.473 214.29 655.473 214.209C655.473 214.129 655.473 214.079 655.472 214.042C655.47 214.01 655.468 213.999 655.468 213.999C655.452 213.941 655.407 213.896 655.35 213.881C655.349 213.881 655.338 213.878 655.307 213.877C655.27 213.875 655.22 213.875 655.14 213.875H649.467C649.387 213.875 649.338 213.875 649.3 213.877Z" fill="white" />
</g>
</svg>