<svg xmlns="http://www.w3.org/2000/svg" width="24" height="24" viewBox="934.9130 119.1163 8.0078 8.0078" fill="none"><g>
<g>
<path d="M938.915 122.193C939.147 122.193 939.334 122.381 939.334 122.612V124.87C939.334 125.101 939.147 125.289 938.915 125.289C938.684 125.289 938.496 125.101 938.496 124.87V122.612C938.496 122.381 938.684 122.193 938.915 122.193Z" fill="white" />
<path d="M938.917 120.854C939.057 120.854 939.174 120.9 939.268 120.992C939.364 121.084 939.412 121.198 939.412 121.334C939.412 121.472 939.364 121.587 939.268 121.679C939.174 121.771 939.057 121.818 938.917 121.818C938.776 121.818 938.659 121.771 938.565 121.679C938.471 121.587 938.424 121.472 938.424 121.334C938.424 121.198 938.471 121.084 938.565 120.992C938.659 120.9 938.776 120.854 938.917 120.854Z" fill="white" />
<path fill-rule="evenodd" clip-rule="evenodd" d="M938.917 119.45C940.944 119.45 942.587 121.093 942.587 123.12C942.587 125.147 940.944 126.79 938.917 126.79C936.89 126.79 935.247 125.147 935.247 123.12C935.247 121.093 936.89 119.45 938.917 119.45ZM938.917 120.117C937.258 120.117 935.914 121.462 935.914 123.12C935.914 124.779 937.258 126.123 938.917 126.123C940.575 126.123 941.92 124.779 941.92 123.12C941.92 121.462 940.575 120.117 938.917 120.117Z" fill="white" />
</g>
</g>
</svg>