<svg xmlns="http://www.w3.org/2000/svg" width="24" height="24" viewBox="2295.2414 399.3900 8.0078 8.0078" fill="none"><g>
<path fill-rule="evenodd" clip-rule="evenodd" d="M2296.25 401.063C2295.8 400.803 2295.24 401.124 2295.24 401.639L2295.24 405.148C2295.24 405.663 2295.8 405.984 2296.25 405.725L2298.91 404.169V405.148C2298.91 405.663 2299.47 405.984 2299.92 405.725L2302.92 403.97C2303.36 403.713 2303.36 403.075 2302.92 402.817L2299.92 401.063C2299.47 400.803 2298.91 401.124 2298.91 401.639V402.618L2296.25 401.063ZM2302.59 403.394L2299.58 405.148V403.478C2299.59 403.422 2299.59 403.366 2299.58 403.31V401.639L2302.59 403.394ZM2298.91 403.391V403.397L2295.91 405.148L2295.91 401.639L2298.91 403.391Z" fill="white" />
</g>
</svg>