<svg xmlns="http://www.w3.org/2000/svg" width="24" height="24" viewBox="2974.9052 436.7599 8.0078 8.0078" fill="none"><g>
<g>
<path d="M2978.24 438.43C2978.43 438.43 2978.58 438.579 2978.58 438.763V439.763H2979.58C2979.76 439.763 2979.91 439.912 2979.91 440.096C2979.91 440.281 2979.76 440.43 2979.58 440.43H2978.58V441.433C2978.58 441.617 2978.43 441.766 2978.24 441.766C2978.06 441.766 2977.91 441.617 2977.91 441.433V440.43H2976.91C2976.72 440.43 2976.57 440.281 2976.57 440.096C2976.57 439.912 2976.72 439.763 2976.91 439.763H2977.91V438.763C2977.91 438.579 2978.06 438.43 2978.24 438.43Z" fill="white" />
<path fill-rule="evenodd" clip-rule="evenodd" d="M2978.24 437.094C2979.9 437.094 2981.24 438.438 2981.24 440.096C2981.24 440.805 2981 441.457 2980.59 441.97L2982.15 443.531C2982.28 443.661 2982.28 443.872 2982.15 444.003C2982.02 444.133 2981.81 444.133 2981.68 444.003L2980.12 442.442C2979.6 442.853 2978.95 443.099 2978.24 443.099C2976.58 443.099 2975.24 441.755 2975.24 440.096C2975.24 438.438 2976.58 437.094 2978.24 437.094ZM2978.24 437.761C2976.95 437.761 2975.91 438.807 2975.91 440.096C2975.91 441.386 2976.95 442.432 2978.24 442.432C2979.53 442.432 2980.58 441.386 2980.58 440.096C2980.58 438.807 2979.53 437.761 2978.24 437.761Z" fill="white" />
</g>
</g>
</svg>